<?xml version="1.0" encoding="UTF-8"?>
<!--
  Re-drawn vector version of the two-cubes/handshake/rupee icon.
  Stroke gradient: #34E4A2 → #0A55C3  (top→bottom).
-->
<svg
  xmlns="http://www.w3.org/2000/svg"
  viewBox="0 0 1024 634"
  fill="none"
  stroke-linecap="round"
  stroke-linejoin="round">

  <!-- ====== gradient definition ====== -->
  <defs>
    <linearGradient id="grad" x1="0" y1="0" x2="0" y2="634"
                    gradientUnits="userSpaceOnUse">
      <stop offset="0%"   stop-color="#34E4A2"/>
      <stop offset="100%" stop-color="#0A55C3"/>
    </linearGradient>
    <style>
      .stroke { stroke:url(#grad); stroke-width:32; }
    </style>
  </defs>

  <!-- ====== left cube ====== -->
  <g class="stroke">
    <!-- top face -->
    <polyline points="
        214 162  410  52  606 162  606 372  410 482  214 372 214 162" />
    <!-- vertical edges -->
    <polyline points="410 52 410 262 606 372" />
    <polyline points="410 262 214 372" />

    <!-- ====== right cube (shifted right by 398px) ====== -->
    <g transform="translate(398 0)">
      <polyline points="
          214 162  410  52  606 162  606 372  410 482  214 372 214 162" />
      <polyline points="410 52 410 262 606 372" />
      <polyline points="410 262 214 372" />
    </g>

    <!-- ====== left figure ====== -->
    <!-- head -->
    <circle cx="460" cy="332" r="78" />
    <!-- torso + arm -->
    <path d="M460 410 L460 540 L356 618" />

    <!-- ====== right figure ====== -->
    <circle cx="740" cy="332" r="78" />
    <path d="M740 410 L740 540 L844 618" />

    <!-- ====== handshake / rupee-like key ====== -->
    <path d="
      M518 332
      h148
      l-38 38
      m-110-38
      l38 38
      m 34  0
      v 42
      l-38 38" />
  </g>
</svg>